<svg id="Layer_1" data-name="Layer 1" xmlns="http://www.w3.org/2000/svg" viewBox="0 0 420.12 120.85"><polygon points="79.89 112.38 57.52 112.38 27.93 74.02 57.52 34.18 79.89 34.18 50.3 74.02 79.89 112.38"/><path d="M372.87,32.45c-23.35,0-41.65,18-41.65,41,0,22.69,18.69,41.14,41.65,41.14s41.82-18.45,41.82-41.14C414.69,50.45,396.32,32.45,372.87,32.45Zm0,64.45a23.4,23.4,0,1,1,0-46.79c12.83,0,23.66,10.67,23.66,23.31A23.59,23.59,0,0,1,372.87,96.9Z"/><path d="M291.93,65.15c-7.67-2.4-14.3-4.47-14.3-9.76,0-1.48.68-6.3,9.54-6.3a32.76,32.76,0,0,1,17.91,5.68l9.71-13.16c-9.86-8.48-23.7-9.16-27.8-9.16-16.62,0-27.36,9.67-27.36,24.64,0,16.77,14.5,20.75,26.15,24,8,2.19,14.83,4.08,14.83,9.73,0,1.67-.79,7.15-11.06,7.15a36.56,36.56,0,0,1-22-7.77l-9.65,14c7.06,5.28,16.21,10.45,30.33,10.45,18.45,0,29.91-9.38,29.91-24.47C318.1,73.34,303.59,68.8,291.93,65.15Z"/><path d="M203.39,114.56c24.37,0,36.72-11.55,36.72-34.34V34h-18.5V74.61c0,14.12-3,22.29-18.22,22.29s-18.21-8.17-18.21-22.29V34H166.67V80.22C166.67,103,179,114.56,203.39,114.56Z"/><path d="M148.22,50.11V32.45c-14.78.09-22,1.9-29.2,7.25l-1.93,1.42V34H98.59v78.37h18.5V72.74C117.09,58.28,122.09,50.35,148.22,50.11Z"/><rect width="18.37" height="112.38"/></svg>